<svg width="21" height="20" viewBox="0 0 21 20" fill="none" xmlns="http://www.w3.org/2000/svg">
<g clip-path="url(#clip0_355_418)">
<path d="M0.5 10C0.5 18.0651 2.43492 20 10.5 20C18.5651 20 20.5 18.0651 20.5 10C20.5 1.93492 18.5651 0 10.5 0C2.43492 0 0.5 1.93492 0.5 10ZM7.28227 16.2727C4.97797 16.2836 3.6893 14.1514 4.53254 12.0769L7.66945 4.94895C8.44016 2.75746 12.0266 2.16152 13.3311 4.94895L16.4674 12.0769C17.3157 14.1268 16.0316 16.2978 13.7177 16.2727C12.9524 16.3262 11.4359 15.5865 10.4977 15.6451C9.22773 15.6309 8.36211 16.3049 7.28227 16.2727ZM13.555 13.1975L10.5 6.19137L7.40402 13.1975C9.26074 12.3778 11.6228 12.3283 13.555 13.1975Z" fill="black"/>
</g>
<defs>
<clipPath id="clip0_355_418">
<rect width="20" height="20" fill="white" transform="translate(0.5)"/>
</clipPath>
</defs>
</svg>
