<svg width="21" height="20" viewBox="0 0 21 20" fill="none" xmlns="http://www.w3.org/2000/svg">
<path d="M13.8948 14.05C13.2948 14.5633 12.0973 14.9125 10.7181 14.9125C9.0248 14.9125 7.60564 14.3858 7.22897 13.6767C7.0948 14.0833 7.06397 14.5483 7.06397 14.845C7.06397 14.845 6.97564 16.3033 7.9898 17.3183C7.9898 16.7917 8.4173 16.3642 8.94397 16.3642C9.84647 16.3642 9.84564 17.1517 9.8448 17.7908V17.8483C9.8448 18.8183 10.4373 19.6492 11.2806 20C11.1508 19.7328 11.0836 19.4396 11.084 19.1425C11.084 18.2175 11.6273 17.8733 12.259 17.4733C12.7606 17.1542 13.319 16.8008 13.7031 16.09C13.9103 15.7078 14.0186 15.2798 14.0181 14.845C14.0183 14.5752 13.9767 14.3071 13.8948 14.05ZM13.459 0.5C13.6223 0.703333 13.7056 0.976667 13.8723 1.52417L17.5123 13.48C16.1451 12.7705 14.6777 12.2737 13.1606 12.0067L10.7915 4C10.7725 3.93614 10.7334 3.88014 10.68 3.84037C10.6265 3.8006 10.5616 3.77921 10.495 3.7794C10.4284 3.77959 10.3636 3.80134 10.3104 3.84141C10.2572 3.88148 10.2184 3.9377 10.1998 4.00167L7.85814 12.0042C6.33438 12.27 4.86034 12.7678 3.4873 13.48L7.1448 1.5225C7.31147 0.975833 7.3948 0.7025 7.55897 0.5C7.70319 0.321194 7.89082 0.182332 8.10397 0.0966667C8.34564 0 8.63064 0 9.2023 0H11.8148C12.3865 0 12.6731 0 12.9148 0.0975C13.1272 0.183209 13.3143 0.321754 13.4581 0.5H13.459Z" fill="black"/>
</svg>
