<svg width="20" height="20" viewBox="0 0 20 20" fill="none" xmlns="http://www.w3.org/2000/svg">
<path fill-rule="evenodd" clip-rule="evenodd" d="M3.68758 11.7794C3.4708 12.3001 3.3497 12.8557 3.33008 13.4194C3.35999 13.7671 3.47856 14.1012 3.67445 14.39C4.04306 14.8168 4.48634 15.1728 4.98258 15.4406L8.18758 17.5744C8.58196 17.8883 9.02541 18.1349 9.50008 18.3044C9.80827 18.3778 10.1294 18.3778 10.4376 18.3044C10.9154 18.137 11.3624 17.892 11.7607 17.5794L15.0001 15.4444C15.5014 15.1758 15.9497 14.8183 16.3232 14.3894C16.5205 14.0991 16.6389 13.7624 16.667 13.4125C16.6457 12.8442 16.5214 12.2845 16.3001 11.7606L13.467 2.8444C13.4037 2.55564 13.2894 2.28049 13.1295 2.0319C13.0129 1.89033 12.8624 1.78066 12.692 1.71315C12.4071 1.63593 12.1108 1.61011 11.817 1.6369H8.1282C7.83421 1.61018 7.53781 1.63664 7.2532 1.71503C7.08233 1.7824 6.93167 1.8926 6.8157 2.03503C6.65644 2.28362 6.54318 2.55884 6.48133 2.84753L3.68758 11.78V11.7794ZM11.9626 3.5294C12.0944 3.7389 12.1877 3.97024 12.2382 4.21253L14.6707 12.2025C13.7571 11.7286 12.7764 11.3971 11.7626 11.2194L10.182 5.8694C10.1722 5.8378 10.1551 5.80899 10.1319 5.78538C10.1088 5.76177 10.0803 5.74405 10.0489 5.73371C10.0175 5.72337 9.98412 5.7207 9.95148 5.72593C9.91884 5.73116 9.88792 5.74414 9.86133 5.76378C9.82564 5.78989 9.79951 5.827 9.78695 5.8694L8.22445 11.2175C7.20588 11.3948 6.22063 11.7277 5.3032 12.2044L7.7457 4.2144C7.79571 3.97166 7.88931 3.74 8.02195 3.53065C8.11869 3.41192 8.2438 3.31949 8.3857 3.2619C8.62478 3.19728 8.87352 3.17611 9.12008 3.1994H10.8657C11.1125 3.17609 11.3614 3.19726 11.6007 3.2619C11.743 3.31966 11.8684 3.41255 11.9651 3.5319L11.9626 3.5294ZM10.0795 13.1625C10.8316 13.2061 11.5776 13.0036 12.2045 12.5856C12.2757 12.81 12.301 13.0464 12.2787 13.2807C12.2565 13.515 12.1872 13.7425 12.0751 13.9494C11.8445 14.3413 11.5098 14.6617 11.1082 14.875C10.687 15.1425 10.3245 15.375 10.3245 15.9919C10.3239 16.1898 10.3686 16.3852 10.4551 16.5632C10.171 16.4452 9.92826 16.2457 9.75751 15.9898C9.58676 15.734 9.49565 15.4332 9.4957 15.1257V15.0875C9.4957 14.6607 9.4957 14.135 8.89445 14.135C8.81064 14.135 8.72762 14.1513 8.65008 14.1832C8.49404 14.2478 8.36998 14.3716 8.30508 14.5275C8.27285 14.605 8.25608 14.688 8.2557 14.7719C7.8436 14.3218 7.62222 13.7294 7.6382 13.1194C7.63528 12.8554 7.67215 12.5924 7.74758 12.3394C7.99758 12.8125 8.94758 13.1644 10.0795 13.1644V13.1625Z" fill="#FF5D01"/>
</svg>
