<svg width="20" height="21" viewBox="0 0 20 21" fill="none" xmlns="http://www.w3.org/2000/svg">
<path d="M2.89277 6.44989L0 13.5847H2.09402L2.61211 12.3434H5.59125L6.16332 13.5847H8.28973L5.07312 6.44993H2.89277V6.44989ZM3.98297 8.46837L4.99758 10.9186H3.07625L3.98297 8.46837ZM6.16062 6.44989L10.0977 15.2645L14.1643 6.44989H12.0136L10.0977 10.7675L8.2843 6.44989H6.16059H6.16062ZM17.9718 6.44989H15.1762L12.0136 13.5847H14.1616L15.303 11.0238H15.7942L16.4715 13.5847H18.6735L17.6804 10.7675C20.6498 10.3433 20.7914 6.57333 17.9718 6.44993V6.44989ZM16.7737 9.52618H15.836L16.601 7.82071H17.3674C18.3507 7.97071 18.1546 9.46344 16.7737 9.52618Z" fill="black"/>
</svg>
