<svg width="20" height="20" viewBox="0 0 20 20" fill="none" xmlns="http://www.w3.org/2000/svg">
<path d="M17.5002 3.61666C17.3752 3.51736 17.2288 3.44838 17.0727 3.41512C16.9165 3.38187 16.7548 3.38525 16.6002 3.425L10.8335 4.90833V16.8L17.1335 15.1833C17.3588 15.1257 17.5584 14.9942 17.7004 14.81C17.8423 14.6257 17.9185 14.3993 17.9168 14.1667V4.43333C17.9143 4.27444 17.8754 4.11824 17.8032 3.97669C17.731 3.83514 17.6273 3.71199 17.5002 3.61666ZM9.16684 4.90833L3.38351 3.425C3.23125 3.38974 3.07308 3.38864 2.92035 3.42178C2.76762 3.45492 2.62413 3.52148 2.50018 3.61666C2.37387 3.71541 2.27206 3.84199 2.20268 3.98653C2.1333 4.13107 2.09822 4.28968 2.10018 4.45V14.1667C2.10035 14.3978 2.17742 14.6224 2.31923 14.8049C2.46105 14.9875 2.65956 15.1177 2.88351 15.175L9.16684 16.8V4.90833Z" fill="black"/>
</svg>
