<svg width="20" height="21" viewBox="0 0 20 21" fill="none" xmlns="http://www.w3.org/2000/svg">
<path d="M3.33317 15.5H4.99984V18.9008L9.25067 15.5H13.3332C14.2523 15.5 14.9998 14.7525 14.9998 13.8333V7.16667C14.9998 6.2475 14.2523 5.5 13.3332 5.5H3.33317C2.414 5.5 1.6665 6.2475 1.6665 7.16667V13.8333C1.6665 14.7525 2.414 15.5 3.33317 15.5Z" fill="black"/>
<path d="M16.6667 2.16669H6.66667C5.7475 2.16669 5 2.91419 5 3.83335H15C15.9192 3.83335 16.6667 4.58085 16.6667 5.50002V12.1667C17.5858 12.1667 18.3333 11.4192 18.3333 10.5V3.83335C18.3333 2.91419 17.5858 2.16669 16.6667 2.16669Z" fill="black"/>
</svg>
