<svg width="20" height="21" viewBox="0 0 20 21" fill="none" xmlns="http://www.w3.org/2000/svg">
<path d="M7.5 8H12.5V13H7.5V8Z" fill="black"/>
<path d="M16.6665 5.50002C16.6665 4.58085 15.919 3.83335 14.9998 3.83335H13.3332V2.16669H11.6665V3.83335H8.33317V2.16669H6.6665V3.83335H4.99984C4.08067 3.83335 3.33317 4.58085 3.33317 5.50002V7.16669H1.6665V8.83335H3.33317V12.1667H1.6665V13.8334H3.33317V15.5C3.33317 16.4192 4.08067 17.1667 4.99984 17.1667H6.6665V18.8334H8.33317V17.1667H11.6665V18.8334H13.3332V17.1667H14.9998C15.919 17.1667 16.6665 16.4192 16.6665 15.5V13.8334H18.3332V12.1667H16.6665V8.83335H18.3332V7.16669H16.6665V5.50002ZM4.99984 15.5V5.50002H14.9998L15.0015 15.5H4.99984Z" fill="black"/>
</svg>
