<svg width="21" height="20" viewBox="0 0 21 20" fill="none" xmlns="http://www.w3.org/2000/svg">
<path d="M17.3081 8.18335C17.0735 8.18205 16.8393 8.20157 16.6081 8.24168C16.5478 7.87677 16.4103 7.52893 16.2048 7.22141C15.9993 6.91388 15.7305 6.65373 15.4165 6.45835L15.1831 6.32501L15.0248 6.55001C14.826 6.85302 14.6821 7.18871 14.5998 7.54168C14.5176 7.85255 14.4995 8.17692 14.5468 8.495C14.5941 8.81307 14.7057 9.11817 14.8748 9.39168C14.4932 9.56179 14.0837 9.66064 13.6665 9.68335H2.69147C2.55366 9.68333 2.42137 9.73749 2.32315 9.83416C2.22493 9.93082 2.16866 10.0622 2.16647 10.2C2.15621 11.1631 2.31995 12.1201 2.6498 13.025C2.9459 13.9141 3.53307 14.6774 4.31647 15.1917C5.45513 15.7696 6.72422 16.0424 7.9998 15.9833C8.6752 15.995 9.35024 15.9448 10.0165 15.8333C10.9503 15.6662 11.8491 15.3421 12.6748 14.875C13.3565 14.4617 13.9671 13.9411 14.4831 13.3333C15.2527 12.4281 15.8538 11.3923 16.2581 10.275H16.4165C16.7572 10.2876 17.097 10.2322 17.4161 10.112C17.7351 9.99183 18.0271 9.80927 18.2748 9.57501C18.4911 9.37338 18.6592 9.12557 18.7665 8.85001L18.8331 8.66668L18.6665 8.53335C18.2628 8.27437 17.7867 8.1517 17.3081 8.18335Z" fill="black"/>
<path d="M5.1752 7.79169H3.70853C3.67456 7.79163 3.64185 7.80452 3.61708 7.82775C3.5923 7.85098 3.57732 7.88279 3.5752 7.91669V9.23336C3.57732 9.26726 3.5923 9.29907 3.61708 9.3223C3.64185 9.34553 3.67456 9.35842 3.70853 9.35836H5.1752C5.20916 9.35842 5.24187 9.34553 5.26665 9.3223C5.29143 9.29907 5.30641 9.26726 5.30853 9.23336V7.91669C5.30641 7.88279 5.29143 7.85098 5.26665 7.82775C5.24187 7.80452 5.20916 7.79163 5.1752 7.79169ZM7.20853 7.79169H5.73353C5.69956 7.79163 5.66685 7.80452 5.64208 7.82775C5.6173 7.85098 5.60232 7.88279 5.6002 7.91669V9.23336C5.60232 9.26726 5.6173 9.29907 5.64208 9.3223C5.66685 9.34553 5.69956 9.35842 5.73353 9.35836H7.20853C7.24168 9.35836 7.27347 9.34519 7.29692 9.32175C7.32036 9.2983 7.33353 9.26651 7.33353 9.23336V7.91669C7.33353 7.88354 7.32036 7.85175 7.29692 7.8283C7.27347 7.80486 7.24168 7.79169 7.20853 7.79169ZM9.26686 7.79169H7.79186C7.75871 7.79169 7.72692 7.80486 7.70347 7.8283C7.68003 7.85175 7.66686 7.88354 7.66686 7.91669V9.23336C7.66686 9.26651 7.68003 9.2983 7.70347 9.32175C7.72692 9.34519 7.75871 9.35836 7.79186 9.35836H9.26686C9.30001 9.35836 9.33181 9.34519 9.35525 9.32175C9.37869 9.2983 9.39186 9.26651 9.39186 9.23336V7.91669C9.39186 7.88354 9.37869 7.85175 9.35525 7.8283C9.33181 7.80486 9.30001 7.79169 9.26686 7.79169ZM9.82519 7.79169C9.80626 7.78644 9.78635 7.78572 9.76709 7.7896C9.74782 7.79349 9.72975 7.80185 9.71432 7.81403C9.6989 7.82621 9.68656 7.84185 9.67832 7.85969C9.67007 7.87752 9.66615 7.89705 9.66686 7.91669V9.23336C9.66686 9.24977 9.6701 9.26603 9.67638 9.28119C9.68266 9.29636 9.69187 9.31014 9.70347 9.32175C9.71508 9.33335 9.72886 9.34256 9.74403 9.34884C9.75919 9.35512 9.77545 9.35836 9.79186 9.35836H11.3335C11.3667 9.35836 11.3985 9.34519 11.4219 9.32175C11.4454 9.2983 11.4585 9.26651 11.4585 9.23336V7.91669C11.4585 7.88354 11.4454 7.85175 11.4219 7.8283C11.3985 7.80486 11.3667 7.79169 11.3335 7.79169H9.82519ZM5.73353 5.90836H7.16686C7.20222 5.90836 7.23614 5.92241 7.26114 5.94741C7.28615 5.97241 7.30019 6.00633 7.30019 6.04169V7.34169C7.30392 7.36117 7.30325 7.38123 7.29823 7.40042C7.29322 7.4196 7.28399 7.43743 7.27122 7.4526C7.25845 7.46776 7.24245 7.47989 7.2244 7.4881C7.20634 7.4963 7.18669 7.50038 7.16686 7.50002H5.73353C5.70038 7.50002 5.66858 7.48685 5.64514 7.46341C5.6217 7.43997 5.60853 7.40818 5.60853 7.37502V6.03336C5.60853 6.01694 5.61176 6.00069 5.61804 5.98552C5.62433 5.97036 5.63353 5.95658 5.64514 5.94497C5.65675 5.93336 5.67053 5.92415 5.68569 5.91787C5.70086 5.91159 5.71711 5.90836 5.73353 5.90836ZM7.79186 5.90836H9.26686C9.28328 5.90836 9.29953 5.91159 9.3147 5.91787C9.32986 5.92415 9.34364 5.93336 9.35525 5.94497C9.36686 5.95658 9.37606 5.97036 9.38235 5.98552C9.38863 6.00069 9.39186 6.01694 9.39186 6.03336V7.34169C9.39186 7.37705 9.37781 7.41097 9.35281 7.43597C9.32781 7.46098 9.29389 7.47502 9.25853 7.47502H7.79186C7.75871 7.47502 7.72692 7.46186 7.70347 7.43841C7.68003 7.41497 7.66686 7.38318 7.66686 7.35002V6.03336C7.66686 6.01694 7.67009 6.00069 7.67638 5.98552C7.68266 5.97036 7.69187 5.95658 7.70347 5.94497C7.71508 5.93336 7.72886 5.92415 7.74403 5.91787C7.75919 5.91159 7.77545 5.90836 7.79186 5.90836ZM9.82519 5.90836H11.3335C11.3499 5.90836 11.3662 5.91159 11.3814 5.91787C11.3965 5.92415 11.4103 5.93336 11.4219 5.94497C11.4335 5.95658 11.4427 5.97036 11.449 5.98552C11.4553 6.00069 11.4585 6.01694 11.4585 6.03336V7.34169C11.4638 7.36063 11.4645 7.38053 11.4606 7.3998C11.4567 7.41906 11.4484 7.43714 11.4362 7.45256C11.424 7.46799 11.4084 7.48032 11.3905 7.48857C11.3727 7.49681 11.3532 7.50074 11.3335 7.50002H9.82519C9.80343 7.50469 9.78083 7.50384 9.75948 7.49754C9.73813 7.49123 9.71869 7.47968 9.70295 7.46394C9.6872 7.44819 9.67565 7.42876 9.66935 7.40741C9.66305 7.38605 9.66219 7.36346 9.66686 7.34169V6.03336C9.66615 6.01372 9.67007 5.99419 9.67832 5.97635C9.68656 5.95852 9.6989 5.94287 9.71432 5.9307C9.72975 5.91852 9.74782 5.91015 9.76709 5.90627C9.78635 5.90239 9.80626 5.9031 9.82519 5.90836Z" fill="black"/>
<path d="M11.3002 4.01666H9.82519C9.75616 4.01666 9.7002 4.07263 9.7002 4.14166V5.45833C9.7002 5.52736 9.75616 5.58333 9.82519 5.58333H11.3002C11.3692 5.58333 11.4252 5.52736 11.4252 5.45833V4.14166C11.4252 4.07263 11.3692 4.01666 11.3002 4.01666Z" fill="black"/>
<path d="M11.875 7.79169C11.8418 7.79169 11.8101 7.80486 11.7866 7.8283C11.7632 7.85174 11.75 7.88353 11.75 7.91669V9.23335C11.75 9.26651 11.7632 9.2983 11.7866 9.32174C11.8101 9.34518 11.8418 9.35835 11.875 9.35835H13.35C13.3664 9.35835 13.3827 9.35512 13.3978 9.34884C13.413 9.34256 13.4268 9.33335 13.4384 9.32174C13.45 9.31013 13.4592 9.29635 13.4655 9.28119C13.4718 9.26602 13.475 9.24977 13.475 9.23335V7.91669C13.475 7.90027 13.4718 7.88402 13.4655 7.86885C13.4592 7.85369 13.45 7.83991 13.4384 7.8283C13.4268 7.81669 13.413 7.80748 13.3978 7.8012C13.3827 7.79492 13.3664 7.79169 13.35 7.79169H11.875Z" fill="black"/>
</svg>
