<svg width="18" height="18" viewBox="0 0 18 18" xmlns="http://www.w3.org/2000/svg">
<path d="M16.125 6.366V12.6562C16.125 13.7437 15.2437 14.625 14.1562 14.625H3.84375C3.32161 14.625 2.82085 14.4176 2.45163 14.0484C2.08242 13.6792 1.875 13.1784 1.875 12.6562V6.366L8.77425 10.161C8.91488 10.2383 9.0855 10.2383 9.22575 10.161L16.125 6.36563V6.366ZM14.1562 3.375C14.6702 3.37505 15.1637 3.57606 15.5314 3.93509C15.8992 4.29412 16.1119 4.78272 16.1243 5.2965L9 9.21525L1.87575 5.29613L1.8765 5.26237C1.8975 4.75472 2.11395 4.27484 2.48059 3.92309C2.84723 3.57134 3.33566 3.37495 3.84375 3.375H14.1562Z" />
</svg>
