<svg width="18" height="19" viewBox="0 0 18 19" fill="none" xmlns="http://www.w3.org/2000/svg">
<g clip-path="url(#clip0_378_210)">
<path d="M13.1464 11.4548C13.1464 12.2108 13.3615 12.5123 13.924 12.5123C15.1777 12.5123 15.976 10.9148 15.976 8.258C15.976 4.1972 13.0168 2.2532 9.32232 2.2532C5.52162 2.2532 2.06472 4.802 2.06472 9.6188C2.06472 14.2196 5.08872 16.7252 9.73272 16.7252C11.3095 16.7252 12.3679 16.5524 13.987 16.0124L14.3344 17.4587C12.736 17.978 11.0278 18.1283 9.71112 18.1283C3.61992 18.1283 0.357422 14.7803 0.357422 9.6179C0.357422 4.4123 4.13832 0.8699 9.34392 0.8699C14.7655 0.8699 17.6374 4.1099 17.6374 8.0843C17.6374 11.4539 16.5799 14.0243 13.2535 14.0243C11.7406 14.0243 10.7479 13.4195 10.6183 12.0794C10.2295 13.5698 9.19272 14.0243 7.78782 14.0243C5.90862 14.0243 4.33182 12.5762 4.33182 9.6611C4.33182 6.7235 5.71512 4.9091 8.19912 4.9091C9.51672 4.9091 10.3375 5.4275 10.7029 6.2483L11.3302 5.1035H13.1446V11.4548H13.1464V11.4548ZM10.4905 8.6036C10.4905 7.4165 9.60402 6.9188 8.86962 6.9188C8.07042 6.9188 7.18572 7.5659 7.18572 9.4676C7.18572 10.9796 7.85532 11.822 8.86962 11.822C9.58242 11.822 10.4905 11.3684 10.4905 10.1156V8.6036Z" fill="black"/>
</g>
<defs>
<clipPath id="clip0_378_210">
<rect width="18" height="18" fill="white" transform="translate(0 0.5)"/>
</clipPath>
</defs>
</svg>
