<svg width="21" height="20" viewBox="0 0 21 20" fill="none" xmlns="http://www.w3.org/2000/svg">
<g clip-path="url(#clip0_355_439)">
<path d="M20.5 15.49C20.2089 15.6001 19.8876 15.5998 19.5967 15.4893C19.3058 15.3788 19.0654 15.1656 18.9208 14.89L16.0458 10.9141L15.6292 10.3583L12.2933 14.895C12.1575 15.159 11.9301 15.3645 11.6538 15.4731C11.3774 15.5817 11.0709 15.5859 10.7917 15.485L15.09 9.71831L11.0917 4.50915C11.3792 4.40554 11.6936 4.40417 11.982 4.50526C12.2704 4.60634 12.5151 4.80372 12.675 5.06415L15.655 9.08915L18.6517 5.08081C18.7886 4.82147 19.016 4.62147 19.2907 4.51884C19.5654 4.4162 19.8683 4.41809 20.1417 4.52415L18.59 6.58331L16.4883 9.31915C16.43 9.37121 16.3833 9.43502 16.3513 9.5064C16.3193 9.57777 16.3028 9.6551 16.3028 9.73331C16.3028 9.81152 16.3193 9.88885 16.3513 9.96023C16.3833 10.0316 16.43 10.0954 16.4883 10.1475L20.4917 15.4908L20.5 15.49ZM0.501677 9.64665L0.851677 7.91748C1.81334 4.49831 5.73334 3.07581 8.43001 5.19248C10.0092 6.43331 10.4033 8.18998 10.3258 10.17H1.43001C1.28584 13.7058 3.83751 15.8408 7.10001 14.75C7.62889 14.5596 8.10229 14.241 8.47781 13.8227C8.85332 13.4045 9.11922 12.8996 9.25168 12.3533C9.42418 11.7983 9.70834 11.7033 10.23 11.8633C10.1431 12.5403 9.90377 13.1888 9.53007 13.7599C9.15637 14.3311 8.65802 14.81 8.07251 15.1608C7.10536 15.6898 5.9957 15.8995 4.9022 15.7599C3.80869 15.6202 2.78734 15.1384 1.98418 14.3833C1.19003 13.4895 0.710073 12.3604 0.61751 11.1683C0.61751 10.9725 0.550843 10.7891 0.505843 10.6133C0.501787 10.2914 0.499842 9.96943 0.50001 9.64748L0.501677 9.64665ZM1.44084 9.40831H9.48584C9.43584 6.84498 7.81834 5.02665 5.66084 5.00998C3.25918 4.97665 1.54084 6.75498 1.43501 9.39665L1.44084 9.40831Z" fill="black"/>
</g>
<defs>
<clipPath id="clip0_355_439">
<rect width="20" height="20" fill="white" transform="translate(0.5)"/>
</clipPath>
</defs>
</svg>
