<svg width="21" height="20" viewBox="0 0 21 20" fill="none" xmlns="http://www.w3.org/2000/svg">
<path d="M10.2923 18.3308C5.94145 18.2241 2.41728 14.7833 2.17895 10.4658L2.16895 10.205L10.2923 18.3308ZM10.4998 1.66663C11.8399 1.66566 13.1604 1.98829 14.3491 2.60707C15.5377 3.22585 16.5594 4.1225 17.3273 5.22079L15.9623 6.17746C15.2688 5.18714 14.3192 4.40395 13.215 3.91167C12.1107 3.41938 10.8935 3.23651 9.69334 3.38262C8.49322 3.52873 7.35539 3.99833 6.40154 4.74117C5.4477 5.48402 4.71372 6.47218 4.27811 7.59996L12.8998 16.2216C13.889 15.8389 14.7728 15.2261 15.4782 14.434C16.1836 13.642 16.6903 12.6934 16.9564 11.6666H13.4164V9.99996H18.8331C18.8331 13.9383 16.1006 17.2383 12.4289 18.1083L2.39061 8.07163C3.26145 4.39996 6.56145 1.66663 10.4998 1.66663Z" fill="black"/>
</svg>
