<svg width="21" height="20" viewBox="0 0 21 20" fill="none" xmlns="http://www.w3.org/2000/svg">
<path d="M16.7502 6.24999C16.7504 5.81161 16.6353 5.3809 16.4165 5.00104C16.1977 4.62117 15.8829 4.30552 15.5036 4.08575C15.1243 3.86597 14.6938 3.74979 14.2555 3.74887C13.8171 3.74794 13.3862 3.8623 13.006 4.08047C12.6257 4.29865 12.3096 4.61296 12.0892 4.9919C11.8688 5.37083 11.7519 5.80106 11.7502 6.23943C11.7486 6.6778 11.8622 7.1089 12.0797 7.48948C12.2973 7.87007 12.6111 8.18676 12.9896 8.4078C12.9002 9.54374 12.2053 9.85311 10.06 10.2992C9.36621 10.443 8.65645 10.5902 8.00098 10.8433V5.91366C8.47758 5.63849 8.85007 5.21375 9.06068 4.7053C9.27128 4.19686 9.30823 3.63313 9.16579 3.10155C9.02335 2.56997 8.70949 2.10024 8.27288 1.76521C7.83627 1.43019 7.30131 1.2486 6.75098 1.2486C6.20064 1.2486 5.66568 1.43019 5.22907 1.76521C4.79246 2.10024 4.4786 2.56997 4.33616 3.10155C4.19373 3.63313 4.23067 4.19686 4.44128 4.7053C4.65188 5.21375 5.02437 5.63849 5.50098 5.91366V14.0863C5.0251 14.3611 4.65301 14.785 4.44227 15.2926C4.23154 15.8001 4.19388 16.3629 4.33514 16.8939C4.4764 17.425 4.78869 17.8947 5.22373 18.2304C5.65876 18.5662 6.1923 18.7492 6.74182 18.7513C7.29134 18.7533 7.82622 18.5743 8.26375 18.2418C8.70127 17.9093 9.01706 17.4419 9.16227 16.9119C9.30748 16.3819 9.27402 15.8188 9.06707 15.3098C8.86012 14.8007 8.4912 14.374 8.01738 14.0957C8.11074 13.3926 8.64238 13.1453 10.5666 12.7473C11.6381 12.5258 12.7455 12.2965 13.683 11.6945C14.8158 10.9687 15.4225 9.86718 15.4939 8.41757C15.8755 8.19872 16.1926 7.88308 16.4132 7.50249C16.6338 7.12191 16.75 6.68987 16.7502 6.24999ZM6.7502 2.49999C6.99742 2.49999 7.2391 2.5733 7.44466 2.71065C7.65022 2.848 7.81044 3.04323 7.90505 3.27163C7.99966 3.50004 8.02441 3.75137 7.97618 3.99385C7.92795 4.23633 7.8089 4.45906 7.63408 4.63387C7.45926 4.80869 7.23654 4.92774 6.99406 4.97597C6.75158 5.0242 6.50025 4.99945 6.27184 4.90484C6.04343 4.81023 5.84821 4.65001 5.71086 4.44445C5.57351 4.23889 5.5002 3.99721 5.5002 3.74999C5.5002 3.41847 5.63189 3.10052 5.86631 2.8661C6.10073 2.63168 6.41868 2.49999 6.7502 2.49999ZM6.7502 17.5C6.50297 17.5 6.2613 17.4267 6.05573 17.2893C5.85017 17.152 5.68996 16.9567 5.59535 16.7283C5.50074 16.4999 5.47598 16.2486 5.52421 16.0061C5.57245 15.7636 5.6915 15.5409 5.86631 15.3661C6.04113 15.1913 6.26386 15.0722 6.50633 15.024C6.74881 14.9758 7.00014 15.0005 7.22855 15.0951C7.45696 15.1897 7.65218 15.35 7.78953 15.5555C7.92689 15.7611 8.0002 16.0028 8.0002 16.25C8.0002 16.5815 7.8685 16.8994 7.63408 17.1339C7.39966 17.3683 7.08172 17.5 6.7502 17.5ZM14.2502 7.49999C14.003 7.49999 13.7613 7.42668 13.5557 7.28932C13.3502 7.15197 13.19 6.95675 13.0953 6.72834C13.0007 6.49993 12.976 6.2486 13.0242 6.00612C13.0724 5.76365 13.1915 5.54092 13.3663 5.3661C13.5411 5.19129 13.7639 5.07224 14.0063 5.02401C14.2488 4.97577 14.5001 5.00053 14.7285 5.09514C14.957 5.18975 15.1522 5.34996 15.2895 5.55552C15.4269 5.76109 15.5002 6.00276 15.5002 6.24999C15.5002 6.58151 15.3685 6.89945 15.1341 7.13387C14.8997 7.36829 14.5817 7.49999 14.2502 7.49999Z" fill="black"/>
</svg>
