<svg width="18" height="19" viewBox="0 0 18 19" fill="none" xmlns="http://www.w3.org/2000/svg">
<path d="M8.99297 1.84121C4.6459 1.83945 1.125 5.35859 1.125 9.70215C1.125 13.1369 3.32754 16.0566 6.39492 17.1289C6.80801 17.2326 6.74473 16.9391 6.74473 16.7387V15.3764C4.35938 15.6559 4.2627 14.0773 4.10273 13.8137C3.7793 13.2617 3.01465 13.1211 3.24316 12.8574C3.78633 12.5779 4.34004 12.9277 4.98164 13.8752C5.4457 14.5625 6.35098 14.4465 6.80977 14.3322C6.90996 13.9191 7.12441 13.55 7.41973 13.2635C4.94824 12.8205 3.91816 11.3123 3.91816 9.51933C3.91816 8.64922 4.20469 7.84941 4.76719 7.2043C4.40859 6.14082 4.80059 5.23027 4.85332 5.09492C5.87461 5.00351 6.93633 5.82617 7.01895 5.89121C7.59902 5.73476 8.26172 5.65215 9.00352 5.65215C9.74883 5.65215 10.4133 5.73828 10.9986 5.89648C11.1973 5.74531 12.1816 5.03867 13.1309 5.1248C13.1818 5.26016 13.565 6.14961 13.2275 7.19902C13.7971 7.8459 14.0871 8.65273 14.0871 9.52461C14.0871 11.3211 13.05 12.8311 10.5715 13.267C10.7838 13.4758 10.9523 13.7247 11.0673 13.9994C11.1823 14.274 11.2414 14.5689 11.2412 14.8666V16.8441C11.2553 17.0023 11.2412 17.1588 11.5049 17.1588C14.618 16.1094 16.8592 13.1686 16.8592 9.70391C16.8592 5.35859 13.3365 1.84121 8.99297 1.84121V1.84121Z" fill="#010409"/>
</svg>
