<svg width="20" height="23" viewBox="0 0 20 23" fill="none" xmlns="http://www.w3.org/2000/svg">
<g clip-path="url(#clip0_381_258)">
<path d="M12.1251 2.62002L16.8251 5.33336C17.0428 5.10477 17.3108 4.92995 17.6077 4.82271C17.9047 4.71547 18.2225 4.67875 18.536 4.71545C18.8496 4.75215 19.1504 4.86126 19.4145 5.03417C19.6787 5.20708 19.899 5.43904 20.0581 5.71174C20.2172 5.98443 20.3107 6.29039 20.3312 6.60543C20.3518 6.92048 20.2987 7.23598 20.1764 7.52702C20.054 7.81805 19.8657 8.07665 19.6262 8.28238C19.3867 8.4881 19.1027 8.63532 18.7965 8.7124L18.7822 8.71526V14.1438C19.0935 14.2183 19.3829 14.3649 19.627 14.572C19.871 14.7791 20.0629 15.0408 20.187 15.3358C20.3111 15.6308 20.364 15.9509 20.3413 16.2702C20.3187 16.5895 20.2212 16.8989 20.0567 17.1735C19.8922 17.4481 19.6653 17.68 19.3945 17.8506C19.1237 18.0212 18.8165 18.1256 18.4978 18.1553C18.1791 18.1851 17.8579 18.1394 17.5602 18.0219C17.2625 17.9044 16.9966 17.7184 16.7841 17.4791L16.7822 17.4772L12.1108 20.1743C12.2118 20.4784 12.2396 20.8021 12.1921 21.119C12.1446 21.436 12.023 21.7372 11.8372 21.9983C11.6513 22.2594 11.4066 22.473 11.1228 22.6218C10.8389 22.7706 10.524 22.8504 10.2035 22.8546C9.8831 22.8588 9.56617 22.7875 9.27849 22.6462C8.99081 22.505 8.74049 22.298 8.54784 22.0419C8.35519 21.7858 8.22565 21.4878 8.16973 21.1723C8.11382 20.8567 8.1331 20.5324 8.22602 20.2257L8.22221 20.24L3.51649 17.5315C3.29801 17.7595 3.02954 17.9336 2.73226 18.0401C2.43497 18.1465 2.11701 18.1825 1.80345 18.1451C1.48989 18.1077 1.18932 17.9979 0.925442 17.8244C0.661565 17.651 0.441603 17.4186 0.28291 17.1456C0.124217 16.8726 0.0311333 16.5664 0.0110031 16.2513C-0.00912707 15.9361 0.0442467 15.6206 0.166914 15.3296C0.289581 15.0387 0.478185 14.7802 0.717848 14.5745C0.957511 14.3689 1.24167 14.2218 1.54792 14.1448L1.56221 14.1419V8.71431C1.27674 8.64665 1.00924 8.51816 0.777999 8.33762C0.546755 8.15707 0.357213 7.92873 0.222328 7.6682C0.0874427 7.40767 0.0103934 7.12109 -0.00355455 6.82805C-0.0175025 6.53501 0.0319797 6.2424 0.141511 5.97024C0.251041 5.69808 0.418039 5.45277 0.63109 5.25108C0.844142 5.04939 1.09823 4.89607 1.37598 4.8016C1.65373 4.70714 1.9486 4.67375 2.24044 4.70372C2.53228 4.73369 2.81422 4.82631 3.06697 4.97526L3.05745 4.9705C3.23269 5.07145 3.38316 5.1905 3.51364 5.32859L3.51459 5.32955L8.21745 2.61526C8.12673 2.31026 8.10868 1.98826 8.16475 1.67504C8.22083 1.36182 8.34946 1.06607 8.54036 0.811491C8.73125 0.55691 8.97911 0.350564 9.26408 0.208975C9.54904 0.0673863 9.8632 -0.00551085 10.1814 -0.00387946C10.4996 -0.00224807 10.813 0.0738665 11.0965 0.21837C11.38 0.362873 11.6257 0.57175 11.814 0.828275C12.0023 1.0848 12.1279 1.38185 12.1807 1.69563C12.2336 2.00941 12.2122 2.33121 12.1184 2.63526L12.1222 2.62098L12.1251 2.62002ZM11.6346 3.45526C11.6175 3.4743 11.5993 3.49242 11.5803 3.50955L11.5794 3.5105L17.7327 14.1676C17.7574 14.1591 17.786 14.1524 17.8108 14.1457V8.7105C17.5505 8.64542 17.3056 8.52959 17.0902 8.36965C16.8748 8.20972 16.6931 8.00883 16.5555 7.77851C16.4179 7.54818 16.3272 7.29296 16.2884 7.02748C16.2497 6.762 16.2638 6.49148 16.3298 6.23145L16.327 6.24574L16.3451 6.17717L11.6346 3.45526ZM8.76316 3.51145L8.70602 3.45431L3.99554 6.1705C4.14438 6.68663 4.08314 7.24068 3.82516 7.71184C3.56719 8.183 3.13341 8.53308 2.6184 8.68574L2.60411 8.68955L2.53173 8.70955V14.1457L2.61173 14.1676L8.76507 3.5105L8.76316 3.51145ZM10.7403 3.99431C10.3645 4.10209 9.96584 4.10077 9.59078 3.9905L9.60507 3.99431L3.45269 14.6505C3.72507 14.9134 3.92507 15.2495 4.02126 15.6276L4.02411 15.6419H16.3203C16.4174 15.2486 16.6184 14.9105 16.8908 14.6486L16.8917 14.6476L10.7432 3.99431H10.7403ZM11.6794 19.4486L16.3622 16.7457C16.3483 16.7012 16.3362 16.6561 16.326 16.6105H4.02126L4.00126 16.6895L8.70507 19.4057C9.0765 19.0219 9.59649 18.7838 10.1717 18.7838C10.7679 18.7838 11.3041 19.0391 11.6774 19.4467L11.6784 19.4486H11.6794Z" fill="black"/>
</g>
<defs>
<clipPath id="clip0_381_258">
<rect width="20" height="22.8571" fill="white"/>
</clipPath>
</defs>
</svg>
