<svg width="20" height="20" viewBox="0 0 20 20" fill="none" xmlns="http://www.w3.org/2000/svg">
<path d="M12.8751 13.3084L13.2251 15.3417C13.0085 15.4584 12.6585 15.5667 12.1918 15.6667C11.7168 15.775 11.1585 15.8334 10.5168 15.8334C8.67513 15.8 7.2918 15.25 6.3668 14.2C5.4168 13.1417 4.9668 11.8 4.9668 10.175C5.00013 8.25002 5.5668 6.77502 6.6668 5.74169C7.73346 4.70002 9.10013 4.16669 10.7501 4.16669C11.3751 4.16669 11.9168 4.22502 12.3668 4.32502C12.8168 4.42502 13.1501 4.53335 13.3668 4.65835L12.8668 6.73335L12.0001 6.45002C11.6668 6.36669 11.2751 6.32502 10.8335 6.32502C9.87513 6.31669 9.07513 6.62502 8.45013 7.24169C7.8168 7.85002 7.50013 8.78335 7.4668 10.025C7.47513 11.1584 7.77513 12.0417 8.3668 12.6917C8.95846 13.3334 9.78346 13.6667 10.8585 13.675L11.9668 13.575C12.3251 13.5084 12.6251 13.4167 12.8751 13.3084Z" fill="black"/>
</svg>
