<svg width="20" height="20" viewBox="0 0 20 20" fill="none" xmlns="http://www.w3.org/2000/svg">
<path d="M11.4496 3.52499C10.7496 2.69165 10.1413 1.85832 10.0246 1.67499H9.99964C9.88297 1.84999 9.27464 2.69165 8.57464 3.52499C2.57464 11.1833 9.52464 16.35 9.52464 16.35L9.58297 16.3917C9.63297 17.1833 9.7663 18.3333 9.7663 18.3333H10.283C10.283 18.3333 10.408 17.1917 10.458 16.3917L10.5163 16.3417C10.5163 16.3417 17.4496 11.1833 11.4496 3.52499ZM9.99964 16.2333C9.85359 16.1133 9.71962 15.9794 9.59964 15.8333L9.99964 7.49999L10.3746 15.8333C10.2622 15.9779 10.1367 16.1118 9.99964 16.2333Z" fill="black"/>
</svg>
