<svg width="20" height="20" viewBox="0 0 20 20" fill="none" xmlns="http://www.w3.org/2000/svg">
<g clip-path="url(#clip0_355_303)">
<path d="M20.1071 19.51L19.6838 19.1066C19.4819 18.8393 19.2563 18.5908 19.0096 18.3641L19.0055 18.3608C18.7566 18.1347 18.498 17.9197 18.2296 17.7158C18.0146 17.568 17.7191 17.39 17.343 17.1816C17.0378 17.0462 16.7945 16.8011 16.6613 16.495L16.658 16.4866L16.618 16.4666C16.7946 16.4491 16.9563 16.4166 17.1113 16.3708L17.0921 16.3758L17.5671 16.245C17.7638 16.1833 17.9913 16.1433 18.2271 16.1341H18.2321C18.4805 16.1241 18.7146 16.0841 18.938 16.0183L18.9171 16.0233C19.0249 15.9966 19.1357 15.9664 19.2496 15.9325C19.3635 15.8986 19.461 15.8683 19.5421 15.8416V15.7008C19.4616 15.5803 19.3641 15.4425 19.2496 15.2875C19.1435 15.1425 19.0195 15.0114 18.8805 14.8975L18.8763 14.8941C18.5269 14.5853 18.1649 14.2864 17.7905 13.9975C17.4394 13.7247 17.0748 13.47 16.698 13.2341L16.6413 13.2008C16.424 13.0588 16.1938 12.9374 15.9538 12.8383L15.9255 12.8283C15.6766 12.7272 15.4313 12.6164 15.1896 12.4958C15.1026 12.4532 15.0112 12.4199 14.9171 12.3966L14.908 12.395C14.814 12.3763 14.7289 12.3267 14.6663 12.2541L14.6655 12.2533C14.5472 12.0964 14.4479 11.926 14.3696 11.7458L14.363 11.7291C14.2824 11.5408 14.1952 11.36 14.1013 11.1866C13.8996 10.7966 13.7046 10.4003 13.5163 9.99748C13.328 9.5947 13.1471 9.19137 12.9738 8.78748C12.8532 8.51859 12.7424 8.24998 12.6413 7.98165C12.539 7.70813 12.4104 7.44522 12.2571 7.19665L12.268 7.21582C11.9359 6.64647 11.5653 6.10048 11.1588 5.58165L11.1821 5.61332C10.8102 5.1422 10.4038 4.69932 9.9663 4.28832L9.95963 4.28248C9.52941 3.87884 9.07526 3.50149 8.59963 3.15248L8.5588 3.12332C8.06102 2.76165 7.51658 2.40554 6.92547 2.05498C6.6742 1.90843 6.40346 1.79817 6.1213 1.72748L6.09963 1.72248L5.17213 1.49082L4.64797 1.45082C4.47352 1.43748 4.2988 1.43082 4.1238 1.43082C4.00579 1.36905 3.89719 1.29076 3.8013 1.19832C3.70861 1.11015 3.61036 1.02804 3.50713 0.952483L3.4988 0.946649C2.95748 0.634284 2.38735 0.374754 1.7963 0.171649L1.72547 0.149983C1.57847 0.0658841 1.41444 0.0159268 1.24552 0.00380969C1.07661 -0.00830739 0.907126 0.0177261 0.749632 0.0799826L0.757132 0.0774826C0.602046 0.138301 0.462273 0.23256 0.347765 0.35355C0.233256 0.47454 0.146828 0.619285 0.0946325 0.777483L0.0921325 0.785816C0.00370149 0.998174 -0.025029 1.23066 0.0090442 1.45816C0.0431174 1.68565 0.138699 1.89952 0.285466 2.07665L0.283799 2.07415C0.586021 2.47693 0.817688 2.79359 0.978799 3.02415C1.09935 3.18582 1.2238 3.35387 1.35213 3.52832C1.46963 3.68498 1.5738 3.86415 1.65797 4.05332L1.66463 4.07082C1.7113 4.16998 1.75213 4.28832 1.78213 4.40998L1.78463 4.42332C1.8113 4.53776 1.84491 4.6622 1.88547 4.79665C2.00602 5.10554 2.12019 5.4222 2.22797 5.74665C2.34547 6.10082 2.47547 6.40082 2.6263 6.68665L2.61047 6.65332C2.69102 6.80109 2.77185 6.94554 2.85297 7.08665C2.93408 7.22776 3.0213 7.36554 3.11463 7.49998C3.16756 7.57984 3.23583 7.64839 3.31547 7.70165L3.31797 7.70332C3.3597 7.73325 3.39407 7.7723 3.41847 7.81749C3.44287 7.86268 3.45666 7.91283 3.4588 7.96415V7.96498C3.36048 8.11103 3.29848 8.27846 3.27797 8.45332L3.27713 8.45831C3.25099 8.65461 3.20834 8.84835 3.14963 9.03748L3.1563 9.01248C2.96027 9.61264 2.86152 10.2403 2.8638 10.8716C2.8638 11.0866 2.87463 11.2983 2.89713 11.5075L2.89463 11.4816C2.94463 12.28 3.18547 13.0133 3.5713 13.6483L3.55963 13.6275C3.7238 13.8733 3.89963 14.0875 4.0938 14.2833C4.2066 14.4102 4.35856 14.4958 4.52554 14.5264C4.69252 14.5571 4.86496 14.531 5.01547 14.4525L5.0113 14.4541C5.1557 14.4032 5.2817 14.3105 5.37326 14.1878C5.46482 14.0651 5.5178 13.9179 5.52547 13.765V13.7633C5.56547 13.3683 5.62547 13.015 5.70797 12.67L5.69713 12.7258C5.71825 12.6696 5.72898 12.61 5.7288 12.55L5.72713 12.5125V12.5141C5.72047 12.4536 5.75741 12.3964 5.83797 12.3425V12.3825C5.91852 12.5708 6.00241 12.7589 6.08963 12.9466C6.17685 13.1344 6.26741 13.3225 6.3613 13.5108C6.60713 13.885 6.86797 14.2116 7.15463 14.5125L7.15213 14.51C7.4373 14.8179 7.75185 15.0973 8.0913 15.3441L8.10963 15.3566C8.2863 15.4916 8.4413 15.6375 8.5813 15.7966L8.58463 15.8C8.7163 15.955 8.8738 16.0825 9.0513 16.1783L9.05963 16.1825V16.1625H9.09963C9.06801 16.0917 9.01572 16.0322 8.94963 15.9916L8.94797 15.9908C8.88683 15.9571 8.82808 15.9192 8.77213 15.8775L8.7763 15.88C8.65574 15.7594 8.5313 15.625 8.40297 15.4766C8.27463 15.3283 8.15713 15.1872 8.05047 15.0533C7.76824 14.6633 7.49908 14.2558 7.24297 13.8308C6.98686 13.4058 6.74491 12.9739 6.51713 12.535C6.40935 12.32 6.30519 12.0983 6.20463 11.87C6.10408 11.6416 6.00658 11.42 5.91213 11.205C5.86938 11.1176 5.8423 11.0234 5.83213 10.9266V10.9225C5.82988 10.8767 5.8158 10.8323 5.79127 10.7936C5.76673 10.7549 5.73257 10.7232 5.69213 10.7016L5.69047 10.7008C5.59506 10.8648 5.48096 11.0172 5.35047 11.155L5.3513 11.1541C5.21746 11.2952 5.10968 11.4588 5.03297 11.6375L5.0288 11.6483C4.90406 11.9561 4.823 12.2798 4.78797 12.61L4.7863 12.6258C4.7463 12.9819 4.70602 13.348 4.66547 13.7241L4.62547 13.7441L4.60547 13.7641C4.50115 13.7432 4.40284 13.6992 4.31776 13.6353C4.23268 13.5714 4.16299 13.4893 4.1138 13.395L4.11213 13.3908C4.01102 13.1958 3.92047 13.0041 3.84047 12.8158C3.62216 12.2447 3.50295 11.6404 3.48797 11.0291V11.0216C3.44468 10.3685 3.52555 9.71304 3.7263 9.08998L3.7163 9.12665C3.7563 8.97887 3.84352 8.72998 3.97797 8.37998C4.11241 8.02998 4.13935 7.78804 4.0588 7.65415C4.01905 7.52164 3.94247 7.40314 3.83797 7.31248L3.83713 7.31165C3.73753 7.22538 3.64423 7.13209 3.55797 7.03248L3.55547 7.02915C3.46158 6.89359 3.37102 6.74915 3.2838 6.59582C3.19658 6.44248 3.11935 6.29137 3.05213 6.14248C2.89696 5.7753 2.76503 5.39873 2.65713 5.01498L2.6388 4.94082C2.52023 4.51202 2.36809 4.09323 2.1838 3.68832L2.20547 3.74165C2.11925 3.54377 2.01017 3.35667 1.88047 3.18415L1.88547 3.19082C1.74991 3.0097 1.6288 2.83832 1.52213 2.67665C1.38658 2.5022 1.25213 2.33415 1.1188 2.17248C0.979859 2.0042 0.860743 1.82049 0.763799 1.62498L0.756299 1.60832C0.713662 1.52126 0.680418 1.42991 0.657132 1.33582L0.655466 1.32665C0.641149 1.27931 0.637386 1.2294 0.644441 1.18045C0.651496 1.1315 0.669197 1.08469 0.696299 1.04332L0.695466 1.04498C0.704375 0.999921 0.725408 0.958144 0.756299 0.924149C0.790038 0.893994 0.831149 0.873295 0.875466 0.864149H0.877132C0.942881 0.821508 1.01846 0.796437 1.09666 0.79133C1.17486 0.786224 1.25306 0.801253 1.3238 0.834983L1.3213 0.834149C1.5038 0.885816 1.6513 0.937483 1.79547 0.996649L1.76547 0.985816C2.02047 1.09359 2.25574 1.19776 2.4713 1.29832C2.71963 1.41665 2.9313 1.54165 3.1313 1.68082L3.1163 1.67082C3.22408 1.73804 3.33158 1.81193 3.4388 1.89248C3.54602 1.97304 3.66019 2.05387 3.7813 2.13498H4.0638C4.2788 2.13498 4.50713 2.14526 4.7488 2.16582C4.99297 2.18498 5.2188 2.23082 5.4338 2.30248L5.4138 2.29665C5.81463 2.41582 6.1588 2.55665 6.48547 2.72582L6.4513 2.70998C6.78074 2.87776 7.09324 3.05582 7.3888 3.24415C7.87963 3.54998 8.3038 3.86332 8.70297 4.20582L8.6888 4.19415C9.10547 4.55082 9.4838 4.91665 9.8388 5.30332L9.84713 5.31332C10.1938 5.69165 10.5246 6.10248 10.8271 6.53332L10.853 6.57248C11.1313 6.96582 11.4121 7.42082 11.6646 7.89248L11.6996 7.96332C11.774 8.10792 11.8392 8.25711 11.8946 8.40998L11.9038 8.43748C11.9577 8.59193 12.018 8.75026 12.0846 8.91248C12.2324 9.24859 12.3907 9.58776 12.5596 9.92998C12.7285 10.2722 12.8869 10.605 13.0346 10.9283L13.478 11.8958C13.6338 12.2341 13.808 12.5258 14.0105 12.795L14.0013 12.7825C14.1705 12.9633 14.3963 13.09 14.6496 13.1341L14.6563 13.135C14.963 13.2116 15.2213 13.2983 15.4713 13.4008L15.4321 13.3866C15.5513 13.4408 15.7046 13.4983 15.8621 13.5491L15.8955 13.5583C16.0721 13.6125 16.2255 13.6841 16.3663 13.7741L16.3588 13.77C16.6313 13.9225 16.8621 14.0725 17.0821 14.2358L17.0646 14.2233C17.293 14.3911 17.5213 14.5494 17.7496 14.6983C17.8574 14.7789 18.0382 14.8964 18.2921 15.0508C18.546 15.2053 18.6805 15.3497 18.6955 15.4841C18.1849 15.4665 17.6737 15.4907 17.1671 15.5566L17.2138 15.5516C16.7907 15.6066 16.3765 15.7158 15.9813 15.8766L16.0146 15.865C15.9099 15.9094 15.8018 15.9453 15.6913 15.9725L15.6755 15.9758C15.6181 15.9841 15.5651 16.0113 15.5249 16.0531C15.4847 16.0949 15.4597 16.149 15.4538 16.2066V16.2075C15.5046 16.2708 15.5455 16.3441 15.573 16.4241L15.5746 16.4291C15.603 16.5141 15.6371 16.5875 15.6788 16.6558L15.6763 16.6508C15.7755 16.8266 15.8821 16.9783 16.0021 17.1183L15.9988 17.1141C16.1163 17.2591 16.2488 17.385 16.3955 17.4925L16.4013 17.4966C16.5369 17.6044 16.678 17.7153 16.8246 17.8291C16.9588 17.9341 17.1105 18.0375 17.268 18.1308L17.288 18.1416C17.5246 18.2866 17.7996 18.425 18.0863 18.5408L18.1246 18.5541C18.4363 18.6791 18.7038 18.8241 18.9521 18.9966L18.9388 18.9875C19.1005 19.0814 19.2616 19.1855 19.4221 19.3C19.5827 19.4144 19.7371 19.5253 19.8855 19.6325C19.9463 19.6925 19.9996 19.7591 20.0446 19.8316L20.0471 19.8358C20.124 19.9245 20.2308 19.9817 20.3471 19.9966H20.3496V19.9566C20.2759 19.9009 20.2222 19.8229 20.1963 19.7341L20.1955 19.7308C20.1764 19.6506 20.1449 19.5738 20.1021 19.5033L20.1038 19.5066L20.1071 19.51ZM4.62713 3.50582C4.51935 3.50582 4.41852 3.50915 4.32463 3.51582C4.23303 3.52171 4.14257 3.53935 4.05547 3.56832L4.06297 3.56582V3.58582H4.10297C4.15685 3.66637 4.22463 3.75693 4.3063 3.85748C4.38797 3.95804 4.46185 4.05554 4.52797 4.14998L4.85047 4.81498L4.89047 4.79498C4.98431 4.72743 5.05712 4.63468 5.10047 4.52748L5.10213 4.52332C5.14547 4.40748 5.17047 4.27248 5.17047 4.13248L5.16963 4.08748V4.08998C5.13184 4.05323 5.10131 4.0097 5.07963 3.96165L5.0788 3.95915L5.0113 3.80748C4.96807 3.73845 4.90627 3.683 4.83297 3.64748L4.83047 3.64665C4.75559 3.61089 4.68693 3.56334 4.62713 3.50582Z" fill="black"/>
</g>
<defs>
<clipPath id="clip0_355_303">
<rect width="20" height="20" fill="white"/>
</clipPath>
</defs>
</svg>
