<svg width="21" height="20" viewBox="0 0 21 20" fill="none" xmlns="http://www.w3.org/2000/svg">
<path d="M10.4998 18.3208C10.2707 18.3208 10.0565 18.2591 9.8565 18.1525L7.824 16.9458C7.51983 16.7766 7.67233 16.715 7.764 16.6841C8.17733 16.5466 8.254 16.5166 8.6815 16.2733C8.72816 16.2425 8.789 16.2566 8.83566 16.2875L10.394 17.2208C10.4557 17.2508 10.5323 17.2508 10.5782 17.2208L16.6773 13.69C16.739 13.66 16.769 13.5983 16.769 13.5216V6.47331C16.769 6.39748 16.739 6.33581 16.6773 6.30581L10.5782 2.78998C10.5173 2.75914 10.4407 2.75914 10.394 2.78998L4.29316 6.30498C4.23233 6.33498 4.2015 6.41248 4.2015 6.47248V13.52C4.2015 13.5808 4.23233 13.6583 4.29316 13.6883L5.95983 14.6525C6.8615 15.1091 7.42816 14.5733 7.42816 14.04V7.08498C7.42816 6.99331 7.504 6.90081 7.6115 6.90081H8.3915C8.4815 6.90081 8.57483 6.97748 8.57483 7.08498V14.0408C8.57483 15.2483 7.91816 15.9525 6.7715 15.9525C6.41983 15.9525 6.14483 15.9525 5.36483 15.5691L3.76066 14.6533C3.56521 14.5397 3.40301 14.3768 3.29026 14.1808C3.17751 13.9848 3.11817 13.7627 3.11816 13.5366V6.48831C3.11816 6.02998 3.36233 5.60164 3.76066 5.37248L9.85733 1.84164C10.0552 1.7358 10.2762 1.68042 10.5007 1.68042C10.7251 1.68042 10.9461 1.7358 11.144 1.84164L17.2415 5.37248C17.6407 5.60081 17.884 6.02998 17.884 6.48831V13.5366C17.884 13.9941 17.6398 14.4225 17.2415 14.6533L11.144 18.1833C10.9432 18.275 10.714 18.3208 10.4998 18.3208ZM12.3798 13.4741C9.70483 13.4741 9.15483 12.2508 9.15483 11.2125C9.15483 11.1208 9.2315 11.0283 9.33816 11.0283H10.1332C10.2248 11.0283 10.3007 11.0891 10.3007 11.1816C10.4232 11.9908 10.774 12.3891 12.3957 12.3891C13.679 12.3891 14.2307 12.0975 14.2307 11.41C14.2307 11.0125 14.0765 10.7225 12.0748 10.5241C10.409 10.3575 9.36983 9.98831 9.36983 8.65914C9.36983 7.42164 10.409 6.68748 12.1523 6.68748C14.1082 6.68748 15.0715 7.36164 15.1932 8.82748C15.1917 8.87695 15.1755 8.92484 15.1465 8.96498C15.1157 8.99498 15.0707 9.02581 15.0248 9.02581H14.2307C14.1914 9.02498 14.1535 9.01109 14.1231 8.98634C14.0926 8.96159 14.0712 8.92739 14.0623 8.88914C13.8782 8.04581 13.4048 7.77248 12.1523 7.77248C10.7448 7.77248 10.5765 8.26164 10.5765 8.62831C10.5765 9.07081 10.774 9.20831 12.6715 9.45331C14.5515 9.69748 15.4382 10.0491 15.4382 11.365C15.4215 12.7108 14.3223 13.4741 12.3798 13.4741Z" fill="black"/>
</svg>
