<svg width="20" height="20" viewBox="0 0 20 20" fill="none" xmlns="http://www.w3.org/2000/svg">
<path d="M8.95038 10.7417V10.65C9.00038 10.525 9.05038 10.4083 9.10871 10.2917C9.56994 9.31691 9.64729 8.20422 9.32538 7.17501C9.30857 7.02802 9.24668 6.88984 9.1482 6.77943C9.04973 6.66902 8.91949 6.59179 8.77538 6.55834C8.15542 6.51519 7.5405 6.69552 7.04205 7.06668V7.21668C7.09679 7.886 7.08003 8.55924 6.99205 9.22501C6.94476 9.52383 6.96676 9.82952 7.05634 10.1185C7.14592 10.4075 7.30069 10.672 7.50871 10.8917C7.66194 11.0547 7.84642 11.1852 8.05115 11.2754C8.25588 11.3656 8.47668 11.4136 8.70038 11.4167C8.77157 11.1874 8.85503 10.962 8.95038 10.7417ZM8.33371 7.15001C8.28689 7.09696 8.26033 7.02908 8.25871 6.95834C8.26377 6.93746 8.27303 6.91782 8.28593 6.90063C8.29882 6.88344 8.31508 6.86905 8.33371 6.85834C8.45671 6.79451 8.59761 6.77396 8.73371 6.80001C8.94205 6.80001 9.15038 6.93334 9.13371 7.08334C9.10261 7.16589 9.04659 7.23671 8.97342 7.28599C8.90025 7.33526 8.81357 7.36055 8.72538 7.35834H8.67538C8.53845 7.33673 8.41563 7.26184 8.33371 7.15001Z" fill="black"/>
<path d="M6.56658 9.16667C6.64176 8.53065 6.6585 7.88907 6.61658 7.25V7.01667C6.58374 5.64097 7.0383 4.29796 7.89992 3.225C7.06658 2.95833 5.06658 2.39167 3.84158 3.30833C3.09158 3.84167 2.74158 4.84167 2.81658 6.26667C2.98259 7.51163 3.26152 8.73891 3.64992 9.93333C4.21658 11.7833 4.85825 12.95 5.40825 13.1417C5.49158 13.1417 5.74992 13.25 6.12492 12.8C6.65825 12.1667 7.14992 11.625 7.37492 11.3833L7.21658 11.225C6.95558 10.9561 6.76091 10.6301 6.64807 10.2727C6.53523 9.9154 6.50733 9.53667 6.56658 9.16667ZM9.48325 12C9.34992 11.95 9.28325 11.9167 9.13325 12.0917C9.04407 12.1814 8.96319 12.279 8.89158 12.3833C8.59992 12.7417 8.47492 12.8667 7.63325 13.0417C7.51926 13.0606 7.40755 13.0913 7.29992 13.1333C7.39258 13.1982 7.49749 13.2436 7.60825 13.2667C7.98116 13.3928 8.38468 13.3961 8.75961 13.2761C9.13455 13.1562 9.46118 12.9192 9.69158 12.6C9.71311 12.5544 9.72427 12.5046 9.72427 12.4542C9.72427 12.4037 9.71311 12.3539 9.69158 12.3083C9.66522 12.1822 9.59041 12.0715 9.48325 12ZM14.7249 7.15C14.7636 6.93254 14.7859 6.71247 14.7916 6.49167C14.2416 6.425 13.6083 6.43333 13.3583 6.79167C12.8749 7.48333 13.8249 9.19167 14.1916 9.91667C14.2721 10.0453 14.3445 10.1789 14.4083 10.3167C14.4415 10.4066 14.4834 10.4931 14.5333 10.575C14.7503 10.0091 14.7966 9.39198 14.6666 8.8C14.6267 8.51006 14.6072 8.21767 14.6083 7.925C14.6268 7.66401 14.6658 7.40488 14.7249 7.15ZM14.2583 7.01667C14.1861 7.09024 14.0929 7.13972 13.9916 7.15833H13.9416C13.8624 7.15864 13.7849 7.13491 13.7194 7.09028C13.654 7.04564 13.6036 6.9822 13.5749 6.90833C13.5749 6.79167 13.7416 6.70833 13.9416 6.675C14.1416 6.64167 14.3416 6.675 14.3583 6.8C14.3544 6.8825 14.3186 6.96025 14.2583 7.01667Z" fill="black"/>
<path d="M14.1663 4.0667C14.7153 4.67717 15.1071 5.41228 15.3079 6.20836C15.3124 6.24991 15.3124 6.29181 15.3079 6.33336C15.3107 6.62951 15.2856 6.92525 15.2329 7.2167C15.1934 7.45384 15.1684 7.69317 15.1579 7.93336C15.1563 8.21222 15.1758 8.4908 15.2163 8.7667C15.3846 9.53135 15.2784 10.3308 14.9163 11.025L14.9746 11.0917C16.8246 8.18336 17.4746 4.80836 16.8829 4.0667C16.5039 3.59022 16.0205 3.20717 15.4701 2.94709C14.9196 2.68702 14.3167 2.55688 13.7079 2.5667C13.2516 2.56033 12.796 2.60505 12.3496 2.70003C13.0496 3.01433 13.6703 3.4813 14.1663 4.0667Z" fill="black"/>
<path d="M18.0421 11.6666C17.9837 11.5 17.7337 10.9583 16.8171 11.15C16.5427 11.2084 16.264 11.2446 15.9837 11.2583C16.7361 9.98603 17.3135 8.61817 17.7004 7.19164C18.0087 5.98331 18.2504 4.36664 17.6087 3.54164C17.1375 2.9438 16.534 2.46336 15.8457 2.13803C15.1575 1.8127 14.4032 1.65135 13.6421 1.66664C12.9481 1.66219 12.2573 1.76048 11.5921 1.95831C11.1929 1.88816 10.7889 1.84915 10.3837 1.84164C9.66644 1.8269 8.95837 2.00536 8.33374 2.35831C7.8519 2.19952 7.35886 2.07695 6.85874 1.99164C6.26453 1.84014 5.64576 1.81077 5.03986 1.90531C4.43397 1.99984 3.85356 2.21632 3.33374 2.54164C2.30041 3.26664 1.82541 4.53331 1.90874 6.30831C2.06783 7.62814 2.34676 8.93074 2.74208 10.2C2.9772 10.9941 3.28691 11.7642 3.66708 12.5C3.93797 13.1776 4.46058 13.7241 5.12541 14.025C5.36637 14.1034 5.62389 14.1162 5.87144 14.0621C6.119 14.0079 6.34762 13.8886 6.53374 13.7166C6.75679 13.9593 7.04679 14.1304 7.36708 14.2083C8.01482 14.3868 8.70343 14.3458 9.32541 14.0916V14.7666C9.31841 15.4311 9.40538 16.0932 9.58374 16.7333C9.58609 16.7694 9.58609 16.8056 9.58374 16.8416C9.69486 17.2287 9.89784 17.5832 10.1754 17.875C10.5111 18.189 10.9577 18.3569 11.4171 18.3416C11.6135 18.3424 11.8093 18.32 12.0004 18.275C12.3626 18.2309 12.7122 18.1144 13.0286 17.9326C13.345 17.7508 13.6216 17.5074 13.8421 17.2166C14.4065 16.2002 14.6696 15.0439 14.6004 13.8833V13.6666H14.7421C15.4257 13.714 16.1108 13.5998 16.7421 13.3333C17.1171 13.1416 18.3337 12.5 18.0421 11.6666ZM16.5337 12.8916C16.0572 13.0836 15.5475 13.1798 15.0337 13.175C14.8113 13.1809 14.5893 13.1528 14.3754 13.0916C14.2921 13.875 14.1087 15.3333 14.0004 15.9416C13.9684 16.4324 13.7617 16.8956 13.4178 17.2472C13.0739 17.5987 12.6154 17.8155 12.1254 17.8583C11.9446 17.8966 11.7603 17.9161 11.5754 17.9166C11.2126 17.9082 10.8624 17.7815 10.5782 17.5559C10.2939 17.3303 10.091 17.0181 10.0004 16.6666C9.78557 15.5525 9.70722 14.4164 9.76708 13.2833C9.36139 13.65 8.8304 13.8469 8.28374 13.8333C8.01922 13.8289 7.7562 13.7925 7.50041 13.725C7.42541 13.725 6.77541 13.5333 6.78374 13.1166C6.79208 12.7 7.33374 12.625 7.53374 12.5833C8.25041 12.4333 8.30041 12.375 8.52541 12.0916C8.57449 12.0221 8.62734 11.9554 8.68374 11.8916C8.36044 11.8795 8.04413 11.794 7.75874 11.6416C7.56708 11.85 7.04208 12.4166 6.47541 13.0916C6.37242 13.2448 6.23525 13.372 6.07473 13.4631C5.91421 13.5542 5.73472 13.6067 5.55041 13.6166C5.45368 13.6305 5.35547 13.6305 5.25874 13.6166C4.52541 13.3333 3.83374 12.125 3.20041 9.99998C2.8072 8.76993 2.52824 7.50625 2.36708 6.22498C2.28374 4.62498 2.70041 3.49164 3.59208 2.89164C5.19208 1.75831 7.75874 2.63331 8.34208 2.84164C8.93561 2.44855 9.63941 2.25581 10.3504 2.29164C10.7441 2.29206 11.1361 2.34246 11.5171 2.44164C12.1877 2.21343 12.8921 2.10072 13.6004 2.10831C14.2884 2.08939 14.9714 2.23002 15.596 2.51917C16.2206 2.80832 16.7697 3.23815 17.2004 3.77498C17.7754 4.50831 17.3921 6.27498 17.2004 7.01664C16.7728 8.6159 16.095 10.1375 15.1921 11.525C15.3254 11.6166 15.7337 11.7833 16.8587 11.525C17.2421 11.4416 17.4671 11.525 17.5421 11.7333C17.7254 12.1916 16.9587 12.675 16.5337 12.875V12.8916Z" fill="black"/>
<path d="M14.5251 11.325C14.3128 11.0742 14.1387 10.7934 14.0085 10.4917C14.0085 10.4333 13.9085 10.2917 13.8168 10.1333C13.3335 9.3 12.3251 7.45 12.9835 6.51666C13.2051 6.28099 13.4861 6.10941 13.797 6.01995C14.1079 5.9305 14.4372 5.92648 14.7501 6.00833C14.5359 5.41725 14.2169 4.86961 13.8085 4.39166C13.392 3.8786 12.8678 3.46336 12.2731 3.17535C11.6783 2.88734 11.0276 2.73359 10.3668 2.725C9.97687 2.70042 9.58614 2.75821 9.22002 2.8946C8.8539 3.031 8.5206 3.24295 8.2418 3.51666C7.53227 4.35253 7.1269 5.40415 7.0918 6.5L7.2168 6.43333C7.56326 6.24645 7.94231 6.12764 8.33346 6.08333C8.49533 6.04584 8.6632 6.04213 8.82656 6.07244C8.98993 6.10275 9.14529 6.16643 9.28293 6.2595C9.42058 6.35257 9.53755 6.47302 9.62654 6.61334C9.71553 6.75365 9.77462 6.91081 9.80013 7.075C10.1427 8.20202 10.0567 9.41592 9.55846 10.4833C9.50428 10.5885 9.45696 10.6971 9.4168 10.8083V10.9C9.33346 11.125 9.25846 11.3333 9.20846 11.5083C9.36901 11.4777 9.53509 11.4981 9.68346 11.5667C9.80881 11.6263 9.91984 11.7123 10.009 11.8187C10.0982 11.9251 10.1633 12.0495 10.2001 12.1833V12.3167C10.2042 12.3415 10.2042 12.3668 10.2001 12.3917C10.1104 13.7554 10.1719 15.1248 10.3835 16.475C10.421 16.6514 10.4962 16.8175 10.604 16.9621C10.7118 17.1066 10.8496 17.2261 11.0079 17.3124C11.1662 17.3987 11.3414 17.4497 11.5213 17.462C11.7012 17.4742 11.8816 17.4474 12.0501 17.3833C12.4469 17.3566 12.8195 17.183 13.0953 16.8964C13.3711 16.6099 13.5303 16.2309 13.5418 15.8333C13.6668 15.1 13.9168 13.0417 13.9501 12.6C13.9501 11.7167 14.3835 11.5417 14.6501 11.4667L14.5251 11.325Z" fill="black"/>
<path d="M14.9999 11.9417L14.9332 11.8917H14.8332C14.6166 11.95 14.4166 12.0083 14.4416 12.5583C14.6875 12.6559 14.9539 12.6903 15.2166 12.6583C15.6106 12.6418 15.9992 12.5601 16.3666 12.4167C16.6075 12.3079 16.8298 12.1617 17.0249 11.9833C16.367 12.214 15.6478 12.1992 14.9999 11.9417Z" fill="black"/>
</svg>
