<svg width="21" height="20" viewBox="0 0 21 20" fill="none" xmlns="http://www.w3.org/2000/svg">
<path d="M12.5398 13.5333C12.0936 14.1678 11.6073 14.7732 11.084 15.3458C12.4773 16.6983 13.774 17.3317 14.4923 16.9158C15.2123 16.5008 15.3115 15.0617 14.8373 13.1792C14.1265 13.3375 13.354 13.4575 12.5398 13.5333ZM11.4482 13.6058C10.8162 13.632 10.1834 13.632 9.5515 13.6058C9.86567 14.0158 10.1832 14.3958 10.4998 14.7425C10.8165 14.3958 11.1332 14.0158 11.4482 13.6058ZM15.6482 7.02749C17.869 7.66415 19.319 8.72249 19.319 9.99999C19.319 11.2775 17.869 12.3358 15.6482 12.9725C16.2065 15.2142 16.0157 16.9992 14.9098 17.6375C13.8032 18.2767 12.1615 17.55 10.4998 15.9458C8.83816 17.55 7.1965 18.2767 6.08983 17.6375C4.984 16.9992 4.79233 15.2142 5.3515 12.9725C3.13066 12.3358 1.68066 11.2775 1.68066 9.99999C1.68066 8.72249 3.13066 7.66415 5.3515 7.02749C4.79316 4.78582 4.984 3.00082 6.08983 2.36249C7.1965 1.72332 8.83816 2.44999 10.4998 4.05415C12.1615 2.44999 13.8032 1.72332 14.9098 2.36249C16.0157 3.00082 16.2073 4.78582 15.6482 7.02749ZM14.8373 6.82082C15.3123 4.93749 15.2123 3.49915 14.4932 3.08415C13.774 2.66832 12.4773 3.30165 11.0848 4.65415C11.6076 5.22701 12.0936 5.83239 12.5398 6.46665C13.3548 6.54165 14.1265 6.66165 14.8373 6.82082ZM6.16233 13.1792C5.68733 15.0625 5.78733 16.5008 6.5065 16.9158C7.22566 17.3317 8.52233 16.6983 9.91483 15.3458C9.39177 14.7732 8.90579 14.1678 8.45983 13.5333C7.68724 13.4643 6.91985 13.346 6.16233 13.1792ZM9.5515 6.39415C10.1834 6.36799 10.8162 6.36799 11.4482 6.39415C11.1486 6.00204 10.8322 5.62307 10.4998 5.25832C10.1832 5.60499 9.8665 5.98499 9.5515 6.39499V6.39415ZM8.45983 6.46665C8.90632 5.83211 9.39287 5.22671 9.9165 4.65415C8.52233 3.30165 7.22483 2.66832 6.50733 3.08415C5.78733 3.49915 5.68816 4.93832 6.16233 6.82082C6.87316 6.66249 7.64566 6.54249 8.45983 6.46665ZM12.0782 12.7333C12.6714 11.8628 13.1987 10.9491 13.6557 9.99999C13.1987 9.05084 12.6714 8.13719 12.0782 7.26665C11.0274 7.18798 9.97225 7.18798 8.9215 7.26665C8.3283 8.13719 7.80099 9.05084 7.344 9.99999C7.80099 10.9491 8.3283 11.8628 8.9215 12.7333C9.97225 12.812 11.0274 12.812 12.0782 12.7333ZM13.1482 12.6242C13.6607 12.5575 14.1482 12.4717 14.6065 12.3708C14.4566 11.9006 14.2865 11.4371 14.0965 10.9817C13.8032 11.5417 13.4868 12.0894 13.1482 12.6233V12.6242ZM7.8515 7.37499C7.339 7.44165 6.8515 7.52749 6.39316 7.62832C6.53483 8.07499 6.70483 8.53999 6.90316 9.01749C7.1965 8.45742 7.51289 7.90973 7.8515 7.37582V7.37499ZM6.39316 12.37C6.8515 12.4708 7.339 12.5558 7.8515 12.6233C7.51289 12.0894 7.1965 11.5417 6.90316 10.9817C6.71312 11.4368 6.54296 11.9 6.39316 12.37ZM5.57816 12.1658C5.79566 11.4708 6.07816 10.7425 6.41983 9.99915C6.09373 9.29546 5.81261 8.57178 5.57816 7.83249C3.70983 8.36332 2.514 9.16915 2.514 9.99915C2.514 10.8292 3.70983 11.635 5.57816 12.1658ZM14.6065 7.62832C14.1242 7.52316 13.6377 7.43864 13.1482 7.37499C13.4868 7.9089 13.8032 8.45659 14.0965 9.01665C14.2948 8.53999 14.4648 8.07499 14.6065 7.62832ZM15.4215 7.83249C15.204 8.52749 14.9215 9.25582 14.5798 9.99915C14.9215 10.7425 15.204 11.4708 15.4215 12.1658C17.2898 11.635 18.4857 10.8292 18.4857 9.99915C18.4857 9.16915 17.2898 8.36332 15.4215 7.83249ZM10.4998 11.5667C10.2941 11.5667 10.0904 11.5261 9.90029 11.4474C9.71022 11.3687 9.53751 11.2533 9.39203 11.1078C9.24655 10.9623 9.13115 10.7896 9.05242 10.5995C8.97369 10.4094 8.93316 10.2057 8.93316 9.99999C8.93316 9.79425 8.97369 9.59053 9.05242 9.40045C9.13115 9.21037 9.24655 9.03766 9.39203 8.89219C9.53751 8.74671 9.71022 8.63131 9.90029 8.55258C10.0904 8.47384 10.2941 8.43332 10.4998 8.43332C10.9153 8.43332 11.3138 8.59838 11.6076 8.89219C11.9014 9.18599 12.0665 9.58448 12.0665 9.99999C12.0665 10.4155 11.9014 10.814 11.6076 11.1078C11.3138 11.4016 10.9153 11.5667 10.4998 11.5667Z" fill="black"/>
</svg>
