<svg width="20" height="20" viewBox="0 0 20 20" fill="none" xmlns="http://www.w3.org/2000/svg">
<path d="M16.0724 13.75H15.9999C15.8533 14.1779 15.5729 14.5472 15.2001 14.8034C14.8273 15.0596 14.3819 15.189 13.9299 15.1725C12.0474 15.1725 10.9987 13.75 10.9987 11.235C10.9987 8.73435 12.0474 7.3256 13.9299 7.3256C14.3816 7.30138 14.8288 7.42609 15.2027 7.68058C15.5767 7.93508 15.8567 8.30528 15.9999 8.73435H16.0718V4.3656H17.9112V15H16.0718L16.0724 13.75ZM16.0724 12.4275V10.0419C16.0724 9.30872 15.3968 8.83435 14.5199 8.83435C14.2952 8.83342 14.0728 8.87991 13.8672 8.9708C13.6617 9.06169 13.4776 9.19492 13.3271 9.3618C13.1766 9.52868 13.0629 9.72544 12.9936 9.93923C12.9243 10.153 12.9009 10.379 12.9249 10.6025V11.8962C12.9013 12.1189 12.925 12.344 12.9946 12.5568C13.0642 12.7696 13.1781 12.9653 13.3288 13.1309C13.4795 13.2965 13.6635 13.4283 13.8688 13.5177C14.0741 13.6071 14.296 13.6519 14.5199 13.6494C15.3968 13.6494 16.0724 13.2037 16.0724 12.4275ZM4.09867 15H2.20117V4.96873H6.72867C8.55367 4.96873 9.6893 6.17623 9.6893 8.0731C9.73988 8.68791 9.58342 9.30198 9.24479 9.81762C8.90617 10.3333 8.40483 10.7208 7.82055 10.9187L9.87617 15H7.76367L5.89492 11.1337H4.09867V15ZM6.5418 9.53873C6.69734 9.55745 6.8551 9.54131 7.00363 9.49149C7.15216 9.44167 7.28774 9.35941 7.40054 9.25069C7.51333 9.14196 7.60051 9.00949 7.65576 8.86289C7.711 8.71629 7.73292 8.55923 7.71992 8.4031V7.74185C7.73254 7.58646 7.71023 7.43021 7.65463 7.28456C7.59902 7.13891 7.51153 7.00754 7.39857 6.90009C7.28561 6.79264 7.15003 6.71183 7.00178 6.66358C6.85353 6.61532 6.69636 6.60085 6.5418 6.62123H4.09805V9.53873H6.5418Z" fill="black"/>
</svg>
