<svg width="20" height="20" viewBox="0 0 20 20" fill="none" xmlns="http://www.w3.org/2000/svg">
<path d="M1.66634 7.50001C1.20801 7.50001 0.833008 7.87501 0.833008 8.33334V16.6667C0.833008 17.5833 1.58301 18.3333 2.49967 18.3333H14.1663C15.0913 18.3333 15.833 17.5917 15.833 16.6667H3.33301C2.87467 16.6667 2.49967 16.2917 2.49967 15.8333V8.33334C2.49967 7.87501 2.12467 7.50001 1.66634 7.50001ZM14.9997 4.16668V2.50001C14.9997 1.58334 14.2497 0.833344 13.333 0.833344H9.99967C9.08301 0.833344 8.33301 1.58334 8.33301 2.50001V4.16668H5.83301C4.91634 4.16668 4.16634 4.91668 4.16634 5.83334V13.3333C4.16634 14.25 4.91634 15 5.83301 15H17.4997C18.4163 15 19.1663 14.25 19.1663 13.3333V5.83334C19.1663 4.91668 18.4163 4.16668 17.4997 4.16668H14.9997ZM9.99967 2.50001H13.333V4.16668H9.99967V2.50001ZM9.99967 11.6833V7.36668C9.99967 7.05001 10.3413 6.85001 10.6163 7.00001L14.008 8.85001C14.2747 9.00001 14.2997 9.37501 14.0497 9.55001L10.658 12.0167C10.383 12.2167 9.99967 12.025 9.99967 11.6833Z" fill="black"/>
</svg>
