<svg width="24" height="24" viewBox="0 0 24 24" fill="none" xmlns="http://www.w3.org/2000/svg">
<path d="M4.99979 13.18V15.99C4.99979 16.72 5.39979 17.4 6.03979 17.75L11.0398 20.48C11.6398 20.81 12.3598 20.81 12.9598 20.48L17.9598 17.75C18.5998 17.4 18.9998 16.72 18.9998 15.99V13.18L12.9598 16.48C12.3598 16.81 11.6398 16.81 11.0398 16.48L4.99979 13.18ZM11.0398 3.52L2.60979 8.12C1.91979 8.5 1.91979 9.5 2.60979 9.88L11.0398 14.48C11.6398 14.81 12.3598 14.81 12.9598 14.48L20.9998 10.09V16C20.9998 16.55 21.4498 17 21.9998 17C22.5498 17 22.9998 16.55 22.9998 16V9.59C22.9998 9.22 22.7998 8.89 22.4798 8.71L12.9598 3.52C12.6643 3.36242 12.3346 3.28 11.9998 3.28C11.6649 3.28 11.3352 3.36242 11.0398 3.52Z" fill="black"/>
</svg>
