<svg width="20" height="20" viewBox="0 0 20 20" fill="none" xmlns="http://www.w3.org/2000/svg">
<path d="M2.40039 2.40002V4.76702C9.48639 4.76702 15.2304 10.513 15.2304 17.599H17.5994C17.5994 9.20503 10.7944 2.40002 2.40039 2.40002ZM2.40039 7.13702V9.50602C3.46326 9.50602 4.51573 9.71539 5.49768 10.1222C6.47963 10.5289 7.37184 11.1252 8.12336 11.8768C8.87488 12.6284 9.47098 13.5207 9.87763 14.5027C10.2843 15.4847 10.4935 16.5372 10.4934 17.6H12.8614C12.8614 11.822 8.17739 7.13702 2.40039 7.13702ZM4.66939 13.059C4.07547 13.0715 3.51007 13.3162 3.09444 13.7406C2.67881 14.1651 2.44604 14.7355 2.44604 15.3295C2.44604 15.9236 2.67881 16.494 3.09444 16.9184C3.51007 17.3429 4.07547 17.5876 4.66939 17.6C5.92339 17.6 6.93839 16.584 6.93839 15.33C6.93839 14.076 5.92339 13.059 4.66939 13.059Z" fill="#F0883E"/>
</svg>
