<svg width="21" height="21" viewBox="0 0 21 21" fill="none" xmlns="http://www.w3.org/2000/svg">
<path d="M10.5003 1.745C15.102 1.745 18.8337 5.47666 18.8337 10.0783C18.8337 14.68 15.102 18.4117 10.5003 18.4117C5.89866 18.4117 2.16699 14.68 2.16699 10.0783C2.16699 5.47666 5.89866 1.745 10.5003 1.745ZM8.84449 12.855C8.96616 13.3025 8.95283 13.7208 8.82699 14.0992L8.78199 14.2242C8.67672 14.4761 8.52808 14.7077 8.34283 14.9083C7.85783 15.4358 7.18116 15.635 6.89116 15.4675C6.57866 15.285 6.73449 14.5408 7.29699 13.9467C7.90199 13.3092 8.76866 12.8983 8.76866 12.8983V12.8967L8.84449 12.855ZM15.7262 5.3125C15.3495 3.83166 12.8953 3.34416 10.572 4.16999C9.19199 4.66083 7.69449 5.43249 6.61949 6.43916C5.33949 7.63416 5.13616 8.67583 5.21949 9.11083C5.51533 10.6467 7.62033 11.6508 8.48616 12.3958V12.4C8.23033 12.5242 6.36283 13.4617 5.92616 14.4317C5.45699 15.4525 5.99949 16.1825 6.35366 16.275C7.44783 16.5775 8.57199 16.025 9.17699 15.13C9.75949 14.2542 9.70866 13.13 9.45783 12.5775C9.80199 12.4842 10.207 12.4425 10.7278 12.5058C12.187 12.6717 12.4787 13.5892 12.4145 13.9642C12.3528 14.3383 12.0512 14.5567 11.947 14.6192C11.842 14.6825 11.8112 14.7033 11.8212 14.745C11.832 14.8067 11.8845 14.8067 11.967 14.7975C12.082 14.7767 12.7287 14.485 12.7595 13.775C12.7903 12.88 11.9362 11.8808 10.4153 11.9C9.79033 11.9117 9.39366 11.9633 9.11283 12.0783C9.09387 12.0489 9.06887 12.0239 9.03949 12.005C8.10199 10.9942 6.36199 10.2858 6.43533 8.94249C6.45616 8.4525 6.63283 7.16166 9.76866 5.59916C12.342 4.3175 14.3945 4.67249 14.7495 5.45333C15.2578 6.56666 13.6545 8.64083 10.9778 8.94249C9.95699 9.0575 9.42616 8.66166 9.28949 8.51499C9.14449 8.35833 9.12449 8.34833 9.07199 8.38083C8.98783 8.4225 9.04033 8.5575 9.07199 8.64166C9.15533 8.84916 9.47783 9.21499 10.0412 9.40166C10.5303 9.55833 11.7278 9.65083 13.1662 9.08916C14.7803 8.46499 16.0403 6.72416 15.6762 5.26583L15.7262 5.3125Z" fill="black"/>
</svg>
