<svg width="21" height="20" viewBox="0 0 21 20" fill="none" xmlns="http://www.w3.org/2000/svg">
<g clip-path="url(#clip0_355_422)">
<path d="M8.03531 0.576701C10.5562 -0.0697833 13.3423 0.306935 15.5655 1.67904C18.3655 3.3535 20.1934 6.52092 20.2399 9.78139C20.3423 13.0744 18.6259 16.3395 15.8678 18.1302C12.798 20.1953 8.55156 20.2744 5.41664 18.3116C2.22132 16.4046 0.356169 12.5581 0.835309 8.86506C1.22125 4.96272 4.23531 1.52092 8.03531 0.576779V0.576701Z" fill="#010101"/>
<path d="M7.64851 2.1721C12.4113 0.26507 18.2532 3.78601 18.7462 8.89304C19.5137 13.4884 15.6997 18.1581 11.0438 18.293C6.61593 18.7349 2.33687 14.9813 2.21133 10.5349C1.88109 6.93491 4.2532 3.3628 7.64851 2.1721Z" fill="white"/>
<path d="M8.12824 9.50703C10.2632 7.76281 12.3515 5.95812 14.5329 4.26508C13.3887 6.02328 12.212 7.75812 11.0678 9.51625C10.0864 9.52093 9.10504 9.52094 8.12824 9.50695V9.50703ZM9.93293 10.4791C10.9189 10.4791 11.9004 10.4791 12.8818 10.493C10.7329 12.2279 8.65387 14.0465 6.46777 15.7349C7.61199 13.9767 8.78871 12.2373 9.93293 10.4791Z" fill="#010101"/>
</g>
<defs>
<clipPath id="clip0_355_422">
<rect width="20" height="20" fill="white" transform="translate(0.5)"/>
</clipPath>
</defs>
</svg>
