<svg width="21" height="20" viewBox="0 0 21 20" xmlns="http://www.w3.org/2000/svg">
<g clip-path="url(#clip0_753_2)">
<path d="M10.4463 0.0116577C9.6101 0.0140479 8.77739 0.119851 7.96715 0.326658C4.06715 1.29582 0.972981 4.82832 0.575481 8.83499C0.0838144 12.625 1.99965 16.5725 5.27881 18.53C8.49631 20.545 12.8563 20.4633 16.0071 18.3442C18.838 16.5058 20.6005 13.1542 20.4955 9.77332C20.4471 6.42666 18.5705 3.17666 15.6955 1.45666C14.1288 0.490824 12.2863 0.00499105 10.4471 0.012491L10.4463 0.0116577ZM10.3938 1.42499C14.5146 1.41916 18.5513 4.60249 18.9621 8.86166C19.7496 13.5783 15.8346 18.3725 11.0555 18.5117C6.51048 18.965 2.11881 15.1117 1.98881 10.5475C1.65048 6.85249 4.08631 3.18499 7.57048 1.96416C8.46874 1.60663 9.42702 1.42392 10.3938 1.42582V1.42499ZM14.6363 4.11166C12.3971 5.84916 10.253 7.70166 8.06215 9.49249C9.06465 9.50666 10.0721 9.50582 11.0796 9.50082C12.2546 7.69666 13.463 5.91749 14.6363 4.11166ZM9.91548 10.49C8.74048 12.295 7.53215 14.0808 6.35715 15.885C8.60131 14.1517 10.7363 12.285 12.9421 10.505C11.9333 10.4928 10.9244 10.4878 9.91548 10.49V10.49Z"/>
</g>
<defs>
<clipPath id="clip0_753_2">
<rect width="20" height="20" transform="translate(0.5)"/>
</clipPath>
</defs>
</svg>
