<svg width="21" height="21" viewBox="0 0 21 21" fill="none" xmlns="http://www.w3.org/2000/svg">
<path d="M11.2612 13.1862L9.03875 10.99L9.065 10.9637C10.5474 9.31621 11.6549 7.36685 12.3112 5.25H14.875V3.5H8.75V1.75H7V3.5H0.875V5.24125H10.6488C10.0625 6.93 9.135 8.53125 7.875 9.93125C7.06125 9.03 6.3875 8.04125 5.85375 7H4.10375C4.7425 8.42625 5.6175 9.77375 6.71125 10.99L2.2575 15.3825L3.5 16.625L7.875 12.25L10.5962 14.9713L11.2612 13.1862ZM16.1875 8.75H14.4375L10.5 19.25H12.25L13.23 16.625H17.3863L18.375 19.25H20.125L16.1875 8.75ZM13.895 14.875L15.3125 11.0863L16.73 14.875H13.895V14.875Z" fill="black"/>
</svg>
