<svg width="21" height="21" viewBox="0 0 21 21" fill="none" xmlns="http://www.w3.org/2000/svg">
<g clip-path="url(#clip0_355_521)">
<path d="M19.8682 2.28529L14.4285 3.27678L15.3738 0L7.82509 1.47914L7.70749 3.46502L1.09392 2.2829C0.638426 2.25639 0.373015 2.58349 0.561093 3.03765L10.1319 19.8213C10.3379 20.1576 10.8122 20.1707 11.0202 19.8213L20.4049 3.03604C20.6167 2.65659 20.2922 2.2118 19.8682 2.28529ZM10.5741 19.3612L1.20078 2.92376L7.67109 4.08027L7.36607 9.23184L10.0183 8.61977L9.27878 12.2411L11.2934 11.629L10.2936 16.4681C10.2438 16.7845 10.656 16.9529 10.8599 16.5L16.7509 4.74341L13.8436 5.30451L14.2392 3.93345L19.7651 2.92624L10.5741 19.3612Z" fill="black"/>
</g>
<defs>
<clipPath id="clip0_355_521">
<rect width="20" height="20.0784" fill="white" transform="translate(0.5)"/>
</clipPath>
</defs>
</svg>
