<svg width="21" height="21" viewBox="0 0 21 21" fill="none" xmlns="http://www.w3.org/2000/svg">
<path d="M18.0134 15.1791L10.7934 19.2447V16.0772L15.2921 13.6128L18.0134 15.1791ZM18.5084 14.7335V6.22783L15.8652 7.74783V13.2135L18.5084 14.7335ZM2.93836 15.1791L10.1584 19.2447V16.0772L5.65961 13.6128L2.93836 15.1791ZM2.44336 14.7335V6.22783L5.08648 7.74783V13.2135L2.44336 14.7335ZM2.75273 5.6772L10.1584 1.5072V4.57033L5.37961 7.18783L2.75273 5.6772ZM18.199 5.6772L10.7934 1.5072V4.57033L15.5721 7.18783L18.199 5.6772ZM10.1584 15.3585L5.72148 12.9266V8.1122L10.1584 10.6641V15.3585ZM10.7934 15.3585L15.2302 12.9266V8.1122L10.7934 10.6641V15.3585ZM6.02086 7.55595L10.4771 5.11783L14.9334 7.55595L10.4771 10.1178L6.02086 7.55595Z" fill="black"/>
</svg>
