<?xml version="1.0" standalone="no"?>
<!DOCTYPE svg PUBLIC "-//W3C//DTD SVG 20010904//EN"
 "http://www.w3.org/TR/2001/REC-SVG-20010904/DTD/svg10.dtd">
<svg version="1.0" xmlns="http://www.w3.org/2000/svg"
 width="265.000000pt" height="265.000000pt" viewBox="0 0 265.000000 265.000000"
 preserveAspectRatio="xMidYMid meet">
<metadata>
Created by potrace 1.14, written by Peter Selinger 2001-2017
</metadata>
<g transform="translate(0.000000,265.000000) scale(0.100000,-0.100000)"
fill="#000000" stroke="none">
<path d="M443 2635 c-203 -44 -385 -228 -428 -432 -21 -100 -21 -1656 0 -1756
43 -206 226 -389 432 -432 100 -21 1656 -21 1756 0 206 43 389 226 432 432 21
100 21 1656 0 1756 -43 206 -226 389 -432 432 -97 21 -1666 20 -1760 0z m1165
-1207 l-3 -43 -51 -3 -51 -3 96 -269 c53 -148 99 -271 102 -274 3 -4 47 110
97 251 50 142 94 266 97 276 6 15 1 17 -44 17 l-51 0 0 45 0 45 145 0 145 0 0
-44 0 -45 -42 -3 -42 -3 -171 -440 c-177 -455 -191 -488 -233 -543 -100 -131
-332 -116 -358 23 -17 90 58 155 140 121 47 -20 67 -77 42 -126 -20 -41 -20
-40 7 -40 57 0 111 60 156 173 l24 58 -151 387 -150 387 -41 3 -41 3 0 45 0
44 191 0 190 0 -3 -42z m656 -582 c34 -14 66 -65 66 -105 0 -39 -28 -89 -59
-105 -85 -44 -181 11 -181 104 0 90 86 143 174 106z"/>
</g>
</svg>
