<svg width="14" height="14" viewBox="0 0 14 14" fill="none" xmlns="http://www.w3.org/2000/svg">
<path d="M10.2256 8.52039C10.2256 9.10839 10.3929 9.34289 10.8304 9.34289C11.8055 9.34289 12.4264 8.10039 12.4264 6.03399C12.4264 2.87559 10.1248 1.36359 7.25127 1.36359C4.29517 1.36359 1.60646 3.34599 1.60646 7.09239C1.60646 10.6708 3.95846 12.6196 7.57046 12.6196C8.79686 12.6196 9.62006 12.4852 10.8794 12.0652L11.1496 13.1901C9.90637 13.594 8.57777 13.7109 7.55367 13.7109C2.81607 13.7109 0.278564 11.1069 0.278564 7.09169C0.278564 3.04289 3.21927 0.287689 7.26807 0.287689C11.4849 0.287689 13.7186 2.80769 13.7186 5.89889C13.7186 8.51969 12.8961 10.5189 10.3089 10.5189C9.13216 10.5189 8.36007 10.0485 8.25926 9.00619C7.95686 10.1654 7.15047 10.5189 6.05777 10.5189C4.59617 10.5189 3.36976 9.39259 3.36976 7.12529C3.36976 4.84049 4.44566 3.42929 6.37767 3.42929C7.40247 3.42929 8.04086 3.83249 8.32506 4.47089L8.81297 3.58049H10.2242V8.52039H10.2256ZM8.15986 6.30279C8.15986 5.37949 7.47037 4.99239 6.89917 4.99239C6.27757 4.99239 5.58946 5.49569 5.58946 6.97479C5.58946 8.15079 6.11026 8.80599 6.89917 8.80599C7.45357 8.80599 8.15986 8.45319 8.15986 7.47879V6.30279Z" fill="#010409"/>
</svg>
