<svg width="14" height="14" viewBox="0 0 14 14" fill="none" xmlns="http://www.w3.org/2000/svg">
<path d="M6.99453 1.04315C3.61348 1.04179 0.875 3.77889 0.875 7.15722C0.875 9.8287 2.58809 12.0996 4.97383 12.9336C5.29512 13.0142 5.2459 12.7859 5.2459 12.6301V11.5705C3.39062 11.7879 3.31543 10.5601 3.19102 10.3551C2.93945 9.92577 2.34473 9.81639 2.52246 9.61132C2.94492 9.39393 3.37559 9.666 3.87461 10.4029C4.23555 10.9375 4.93965 10.8473 5.29648 10.7584C5.37441 10.4371 5.54121 10.15 5.7709 9.92714C3.84863 9.58261 3.04746 8.40956 3.04746 7.01503C3.04746 6.33827 3.27031 5.7162 3.70781 5.21444C3.42891 4.38729 3.73379 3.67909 3.7748 3.57382C4.56914 3.50272 5.39492 4.14257 5.45918 4.19315C5.91035 4.07147 6.42578 4.00722 7.00273 4.00722C7.58242 4.00722 8.09922 4.07421 8.55449 4.19725C8.70898 4.07968 9.47461 3.53007 10.2129 3.59706C10.2525 3.70233 10.5506 4.39413 10.2881 5.21034C10.7311 5.71347 10.9566 6.341 10.9566 7.01913C10.9566 8.4164 10.15 9.59081 8.22227 9.92987C8.38738 10.0923 8.51849 10.2859 8.60792 10.4995C8.69736 10.7131 8.74333 10.9424 8.74316 11.174V12.7121C8.7541 12.8351 8.74316 12.9568 8.94824 12.9568C11.3695 12.1406 13.1127 9.85331 13.1127 7.15858C13.1127 3.77889 10.3729 1.04315 6.99453 1.04315Z" fill="#010409"/>
</svg>
