<svg width="14" height="14" viewBox="0 0 14 14" fill="none" xmlns="http://www.w3.org/2000/svg">
<path d="M12.0806 2.13178C12.0806 2.13178 13.2138 1.6899 13.1194 2.76303C13.0879 3.20491 12.8046 4.75147 12.5843 6.4243L11.8288 11.3796C11.8288 11.3796 11.7659 12.1056 11.1992 12.2318C10.6326 12.3581 9.78273 11.7899 9.62532 11.6637C9.49941 11.569 7.26448 10.1487 6.47751 9.45431C6.25715 9.26493 6.00533 8.88617 6.50898 8.44429L9.8142 5.28805C10.1919 4.90929 10.5697 4.02554 8.99576 5.09867L4.58882 8.09712C4.58882 8.09712 4.08517 8.41274 3.14084 8.12868L1.09475 7.49743C1.09475 7.49743 0.33927 7.02399 1.62988 6.55053C4.7777 5.06709 8.64952 3.55208 12.0806 2.13178Z" fill="#010409"/>
</svg>
